<?xml version="1.0" encoding="UTF-8"?>
<svg width="40px" height="40px" viewBox="0 0 40 40" version="1.1" xmlns="http://www.w3.org/2000/svg">
    <title>Marker Restaurant Ouvert</title>
    <g stroke="none" fill="none">
        <path d="M20,0 C28.8,0 36,7.2 36,16 C36,28 20,40 20,40 C20,40 4,28 4,16 C4,7.2 11.2,0 20,0 Z" fill="#25a45c" />
        <circle cx="20" cy="16" r="8" fill="#FFFFFF" />
        <path d="M17,11 L23,11 C24.1,11 25,11.9 25,13 L25,19 C25,20.1 24.1,21 23,21 L17,21 C15.9,21 15,20.1 15,19 L15,13 C15,11.9 15.9,11 17,11 Z M16.5,13 L16.5,19 C16.5,19.3 16.7,19.5 17,19.5 L23,19.5 C23.3,19.5 23.5,19.3 23.5,19 L23.5,13 C23.5,12.7 23.3,12.5 23,12.5 L17,12.5 C16.7,12.5 16.5,12.7 16.5,13 Z" fill="#25a45c" />
    </g>
</svg>
